PathFileType	4	(X/Y/Z)	C:\Users\Basilio\Documents\Thesis Gigler\squatting_fais\c3dfiles\038\SLS_back_pre3\markers_experimental.trc
DataRate	CameraRate	NumFrames	NumMarkers	Units	OrigDataRate	OrigDataStartFrame	OrigNumFrames
200.000000	200.000000	4	63	mm	200.000000	1173	1878
Frame#	Time	FHD			LBHD			RBHD			C7			T10			CLAV			LSHO			LUUPA			LMUPA			LDUPA			LLEP			LMEP			LRAD			LUL			LRFIN			RSHO			RUPA1			RMUPA			RDUPA			RLEP			RMEP			RRAD			RUL			RUFIN			LASI			RASI			USACR			LSACR			RSACR			LTHI1			LTHI2			LTHI3			LTHI4			LLFC			LMFC			LTIB1			LTIB2			LTIB3			LTIB4			LLMAL			LMMAL			LHEE			LMT1			LMT2			LMT5			RTHI			RTHI2			RTHI3			RTHI4			RLFC			RMFC			RTIB1			RTIB2			RTIB3			RTIB4			RLMAL			RMMAL			RHEE			RMT1			RMT2			RMT5			*61			*62			
		X1	Y1	Z1	X2	Y2	Z2	X3	Y3	Z3	X4	Y4	Z4	X5	Y5	Z5	X6	Y6	Z6	X7	Y7	Z7	X8	Y8	Z8	X9	Y9	Z9	X10	Y10	Z10	X11	Y11	Z11	X12	Y12	Z12	X13	Y13	Z13	X14	Y14	Z14	X15	Y15	Z15	X16	Y16	Z16	X17	Y17	Z17	X18	Y18	Z18	X19	Y19	Z19	X20	Y20	Z20	X21	Y21	Z21	X22	Y22	Z22	X23	Y23	Z23	X24	Y24	Z24	X25	Y25	Z25	X26	Y26	Z26	X27	Y27	Z27	X28	Y28	Z28	X29	Y29	Z29	X30	Y30	Z30	X31	Y31	Z31	X32	Y32	Z32	X33	Y33	Z33	X34	Y34	Z34	X35	Y35	Z35	X36	Y36	Z36	X37	Y37	Z37	X38	Y38	Z38	X39	Y39	Z39	X40	Y40	Z40	X41	Y41	Z41	X42	Y42	Z42	X43	Y43	Z43	X44	Y44	Z44	X45	Y45	Z45	X46	Y46	Z46	X47	Y47	Z47	X48	Y48	Z48	X49	Y49	Z49	X50	Y50	Z50	X51	Y51	Z51	X52	Y52	Z52	X53	Y53	Z53	X54	Y54	Z54	X55	Y55	Z55	X56	Y56	Z56	X57	Y57	Z57	X58	Y58	Z58	X59	Y59	Z59	X60	Y60	Z60	X61	Y61	Z61	X62	Y62	Z62	X63	Y63	Z63	

1174	5.865	-117.3618545532227	1518.86474609375	-1055.869018554688	-272.0328979492188	1469.995727539063	-1118.296142578125	-265.1589355468751	1455.184448242188	-973.9930419921877	-323.8384094238282	1309.2001953125	-1046.6953125	-400.2774047851564	1044.270874023438	-1020.845825195313	-183.7338256835938	1262.911376953125	-1054.309692382813	-238.4483642578126	1317.849487304688	-1189.979614257813	-83.80706024169923	1266.3681640625	-1329.79052734375	-55.42144012451173	1296.527465820313	-1300.940185546875	-15.35099029541016	1273.530517578125	-1339.529296875	47.39730834960938	1276.438598632813	-1343.091796875	58.19503402709962	1200.81494140625	-1325.107299804688	nan	nan	nan	341.6323547363282	1286.261108398438	-1293.050048828125	399.0108032226564	1305.6181640625	-1200.877563476563	-227.1650085449219	1314.2578125	-919.3609619140627	-71.03809356689455	1294.880615234375	-805.5959472656252	-37.37145233154298	1301.66943359375	-840.1989746093752	-2.626252412796021	1289.712768554688	-791.6437988281252	71.01855468750001	1286.733642578125	-784.5305786132815	76.10813903808595	1208.748657226563	-799.789245605469	345.4554443359376	1283.083251953125	-873.8474731445315	358.0208129882813	1296.6845703125	-805.9291992187502	423.2022094726564	1321.362915039063	-881.1489257812502	-265.4018249511719	830.0987548828127	-1102.54443359375	-309.1786499023438	844.3851318359377	-859.018737792969	-447.7444152832032	898.8953247070315	-1009.177734375	-459.8338012695314	869.1289062500002	-1039.925537109375	-468.055877685547	870.8159179687502	-982.672058105469	-156.2267303466797	578.5496826171876	-1149.24462890625	-84.87899017333986	531.6588745117189	-1137.151000976563	-55.40260314941408	559.1540527343751	-1107.151611328125	-82.84517669677736	472.6609191894532	-1120.627197265625	-63.21097946166994	424.3167419433595	-1102.491455078125	-71.63042449951173	432.5086669921876	-989.751403808594	-129.6404724121094	267.2214660644532	-1007.440124511719	-185.8873748779297	247.8304901123047	-1075.121826171875	-161.1632385253907	228.6998901367188	-1039.000732421875	-221.9941558837891	180.0252990722657	-1005.410400390625	-369.0209655761719	117.9089889526367	-1035.014038085938	-331.3869018554688	127.8530044555664	-957.4136352539065	-432.9422607421876	101.3931732177735	-979.0015869140627	-231.8230590820313	41.75647735595704	-972.4166259765627	-223.3977813720704	46.08763885498048	-1022.297241210938	-269.9821166992188	38.88119506835938	-1069.2138671875	-353.5134277343751	574.2300415039064	-786.959655761719	-315.3446960449219	520.9636230468751	-771.2695312500002	-281.9206542968751	522.6489257812501	-772.341491699219	-339.3999938964844	437.9657592773439	-781.0162353515627	-330.0324401855469	341.7033386230469	-790.5286254882815	-317.4122314453126	330.0515136718751	-907.273376464844	-464.8269042968751	251.4257202148438	-840.3572998046877	-563.1504516601564	313.8711242675782	-829.6705322265627	-549.3972778320314	267.9905090332032	-834.1775512695315	-589.6395874023439	247.0039520263672	-873.1016235351565	-723.1203613281251	287.7104797363282	-875.4246215820315	-690.3945922851564	257.1947326660157	-947.4722290039065	-726.7124633789064	346.9526672363282	-947.207702636719	-777.2075195312502	137.1914215087891	-960.536560058594	-798.6445922851565	137.1328887939453	-918.0642700195315	-830.0213012695315	183.2618408203125	-888.3547973632815	nan	nan	nan	nan	nan	nan	
1175	5.87	-117.4573440551758	1519.519775390625	-1056.059936523438	-272.1614990234376	1470.555541992188	-1118.375122070313	-265.2494812011719	1455.62548828125	-974.0122680664065	-323.9349670410157	1309.634643554688	-1046.846313476563	-400.1800537109376	1044.806640625	-1020.870422363281	-183.965087890625	1263.330810546875	-1054.364013671875	-238.5821228027344	1318.41748046875	-1190.046630859375	-83.89187622070314	1266.798828125	-1329.801025390625	-55.33462142944337	1297.042846679688	-1301.2900390625	-15.38754749298096	1273.981201171875	-1339.595092773438	47.39903259277344	1276.969848632813	-1343.019165039063	58.04087829589845	1201.472045898438	-1324.86181640625	nan	nan	nan	341.6102905273438	1286.733276367188	-1293.04296875	398.9533691406251	1306.204345703125	-1200.895874023438	-227.3692779541016	1314.834594726563	-919.2645263671877	-71.14585876464845	1295.484375	-805.6339111328127	-37.44567489624024	1302.294067382813	-840.0958251953127	-2.718540906906128	1290.320068359375	-791.5811767578127	70.87278747558595	1287.286987304688	-784.453308105469	75.74938201904298	1209.41943359375	-799.535339355469	345.2741699218751	1283.49462890625	-873.6558837890627	357.7729492187501	1297.107421875	-805.7158813476565	423.1025390625001	1321.968994140625	-881.002136230469	-265.4328002929688	830.7298583984377	-1102.570190429688	-309.1496887207032	845.0425415039065	-859.0625610351565	-447.6572265625001	899.2154541015627	-1009.15966796875	-459.5592651367189	869.757263183594	-1039.897827148438	-467.9368896484376	871.2326660156252	-982.6484375000002	-156.2718048095703	578.9171752929689	-1149.296875	-84.54611206054689	532.1013793945314	-1137.615356445313	-55.46545028686525	559.3348388671876	-1107.221801757813	-83.09294891357423	472.8100585937501	-1120.739013671875	-63.44828033447267	424.4859924316407	-1102.583251953125	-71.77335357666017	432.6764221191407	-989.8840332031252	-129.7883605957032	267.4710998535157	-1007.673706054688	-186.0642852783203	247.9178466796876	-1075.388671875	-161.2071380615235	228.4508666992188	-1039.0859375	-222.1115264892579	180.0139770507813	-1005.619750976563	-367.3488159179688	117.7183990478516	-1034.281372070313	-331.4282531738282	127.8652648925782	-957.5665283203127	-432.8953552246095	101.1819686889649	-979.5794067382815	-231.7896575927735	41.80455398559571	-972.518005371094	-223.3356475830079	46.08946990966798	-1022.35009765625	-270.0458984375001	38.77950668334962	-1069.344604492188	-353.5812072753907	574.6582031250001	-787.0705566406252	-315.3867187500001	521.3332519531251	-771.3670043945315	-281.9772644042969	523.0468139648439	-772.3841552734377	-339.4473571777344	438.3990783691407	-781.1463623046877	-330.3836669921876	341.9466857910157	-790.8164672851565	-317.5687255859376	330.4746093750001	-907.5222778320315	-464.9033203125001	251.6477813720704	-840.5471191406252	-563.3206176757814	314.0662231445313	-829.8757324218752	-549.3486938476564	268.3117370605469	-834.484558105469	-589.6466674804689	247.0661163330079	-873.6055908203127	-723.1772460937501	287.8575134277344	-875.799011230469	-690.4072265625001	257.2492370605469	-947.7725219726565	-726.8493652343751	346.9934387207032	-947.4791259765627	-777.0699462890627	137.0988311767578	-960.8426513671877	-798.283630371094	137.0553131103516	-918.3492431640627	-829.9263305664065	183.1846160888672	-888.7632446289065	nan	nan	nan	nan	nan	nan	
1176	5.875	-117.5694046020508	1519.99072265625	-1056.160278320313	-272.3124389648438	1471.289184570313	-1118.395629882813	-265.4071044921876	1456.0517578125	-974.066345214844	-324.0952148437501	1310.138793945313	-1046.920654296875	-400.1167907714845	1045.370849609375	-1020.849365234375	-184.0609436035157	1263.867309570313	-1054.443481445313	-238.8125610351563	1318.870971679688	-1190.1123046875	-83.98361206054689	1267.218994140625	-1329.821166992188	-55.94961166381837	1297.67333984375	-1301.517578125	-15.47248935699463	1274.481079101563	-1339.6337890625	47.41462326049805	1277.429443359375	-1343.058349609375	57.98686599731447	1201.252807617188	-1324.991577148438	nan	nan	nan	341.5555419921876	1287.289672851563	-1293.03662109375	398.9654541015626	1306.738647460938	-1200.886108398438	-227.4175567626954	1315.4228515625	-919.421569824219	-71.50241851806642	1296.159057617188	-805.5755615234377	-37.60820770263673	1302.87158203125	-840.0944824218752	-2.891553401947022	1290.81591796875	-791.5669555664065	70.70583343505861	1287.908203125	-784.3934326171877	75.58945465087892	1209.90380859375	-799.3859863281252	345.0651550292969	1283.99462890625	-873.4632568359377	357.4661560058594	1297.617919921875	-805.526062011719	422.9514465332032	1322.637939453125	-880.7456665039065	-265.2962951660157	831.3906250000002	-1102.677978515625	-309.1580810546876	845.6751098632815	-859.0713500976565	-447.8125915527345	899.925720214844	-1009.225341796875	-459.7834472656251	870.167663574219	-1039.931762695313	-467.8721923828126	871.871765136719	-982.573181152344	-156.6233215332032	578.8737792968751	-1149.4794921875	-84.76648712158205	532.3427124023439	-1137.697021484375	-55.59527969360353	559.4863281250001	-1107.29541015625	-83.37727355957033	472.9580688476564	-1120.864501953125	-63.64097595214845	424.6964111328126	-1102.6806640625	-72.04342651367189	432.8241271972657	-990.057312011719	-129.9013824462891	267.5885009765626	-1007.867797851563	-186.2243957519532	248.0052490234376	-1075.655883789063	-161.5254974365235	229.0609436035157	-1039.6015625	-222.2411041259766	180.0461730957032	-1005.926452636719	-369.1791381835938	117.8262710571289	-1035.227416992188	-331.4891357421876	127.9112167358399	-957.7940673828127	-432.9764404296876	101.4128952026367	-979.042419433594	-231.8094635009766	41.82863235473634	-972.5864868164065	-223.3242950439454	46.06970214843751	-1022.431884765625	-269.9984130859376	38.71760940551759	-1069.452880859375	-353.6672058105469	575.2133789062501	-787.1049804687502	-315.0639648437501	522.1305541992189	-771.190612792969	-281.9812316894532	523.5054931640626	-772.4942016601565	-339.5832519531251	438.898651123047	-781.282165527344	-330.5042419433594	342.3033447265626	-791.0249023437502	-317.6994323730469	330.9319458007813	-907.613952636719	-464.9413146972657	251.8459167480469	-840.6318969726565	-563.3718261718751	314.1283264160157	-830.1099853515627	-549.2915039062501	268.6933898925782	-834.9898071289065	-589.8453979492189	247.401596069336	-873.3023071289065	-723.1801147460939	287.9179992675782	-876.0893554687502	-690.3732910156251	257.4866638183594	-948.1362915039065	-727.0620727539064	347.1160278320313	-947.8518676757815	-776.8632812500002	137.1488189697266	-961.138854980469	-798.1147460937502	137.0569763183594	-918.5579833984377	-829.8238525390627	183.182861328125	-889.182800292969	nan	nan	nan	nan	nan	nan	
1177	5.88	-117.6787567138672	1520.3779296875	-1056.146850585938	-272.5166015625001	1471.210205078125	-1118.570434570313	-265.6599121093751	1456.557983398438	-974.040222167969	-324.3554382324219	1310.7138671875	-1046.931396484375	-400.1682128906251	1045.799194335938	-1020.92333984375	-184.1572418212891	1264.484130859375	-1054.496826171875	-238.8585052490235	1319.320190429688	-1190.295532226563	-84.10617065429689	1267.651977539063	-1329.810668945313	-55.8889617919922	1298.160278320313	-1301.015502929688	-15.56654453277588	1275.039794921875	-1339.645385742188	47.71672058105469	1277.709350585938	-1343.163452148438	58.09070968627931	1201.691162109375	-1324.984375	nan	nan	nan	341.4036254882813	1287.966186523438	-1293.038696289063	398.833221435547	1307.303100585938	-1200.892944335938	-227.7321929931641	1316.0732421875	-919.5257568359377	-71.73574829101564	1296.363159179688	-805.6453247070315	-37.74686431884766	1303.412841796875	-840.0548095703127	-3.128763914108277	1291.389892578125	-791.5117187500002	70.48373413085939	1288.528198242188	-784.280944824219	75.75453186035158	1210.625122070313	-798.9489746093752	345.0068054199219	1284.589721679688	-873.295837402344	357.1595764160157	1298.211059570313	-805.2415771484377	422.7455444335939	1322.878295898438	-880.402038574219	-265.1576232910157	832.0010986328127	-1102.808837890625	-309.0440979003907	846.0136718750002	-859.1018676757815	-447.5488586425782	900.1035766601565	-1009.201171875	-458.1785278320314	870.1322021484377	-1039.700073242188	-467.7828369140626	872.4609375000002	-982.5850830078127	-156.6312255859375	579.1292724609376	-1149.585693359375	-84.71640777587892	532.5979614257814	-1137.9248046875	-55.73670959472658	559.6769409179689	-1107.476928710938	-83.5924758911133	473.1497497558595	-1121.053833007813	-63.81967926025392	424.8630371093751	-1102.847900390625	-72.25953674316408	432.8592834472657	-990.201599121094	-130.0421600341797	267.6535339355469	-1008.14404296875	-186.5165252685547	248.1473236083985	-1076.028564453125	-161.5940704345703	228.8422546386719	-1039.732666015625	-222.2883758544922	180.0927276611328	-1006.143371582031	-367.4041748046876	117.6190872192383	-1034.61376953125	-331.4692077636719	127.9333572387696	-957.9368896484377	-432.9004211425782	101.2010879516602	-979.6491699218752	-231.8097381591797	41.88311386108399	-972.6407470703127	-223.1368103027344	46.10168838500977	-1022.415588378906	-270.0940856933594	38.61143112182618	-1069.544555664063	-353.7402038574219	575.7898559570314	-787.1341552734377	-315.4259948730469	522.4263916015626	-771.5803833007815	-282.0323791503907	524.0401000976564	-772.5224609375002	-339.5946655273438	439.3160705566407	-781.3270263671877	-330.4646301269532	343.0809326171876	-790.979919433594	-317.8097839355469	331.3546752929688	-907.8015747070315	-465.013885498047	252.1297454833985	-840.780456542969	-563.2506103515626	314.0423583984376	-830.2644042968752	-549.3606567382814	268.9707031250001	-835.2205200195315	-589.9191894531251	247.8284149169922	-873.1890869140627	-723.2846679687501	288.0588378906251	-876.3609619140627	-690.4317016601564	257.6569519042969	-948.4299316406252	-727.1979980468751	347.2617187500001	-948.360290527344	-776.7603149414065	137.1832580566407	-961.4844970703127	-797.9583740234377	137.3103942871094	-918.9125976562502	-829.7796020507815	183.270263671875	-889.6790161132815	nan	nan	nan	nan	nan	nan	
